<svg xmlns="http://www.w3.org/2000/svg" width="70.711" height="70.711" viewBox="0 0 70.711 70.711">
  <g id="Group_41479" data-name="Group 41479" transform="translate(7220.355 -11028.816)">
    <rect id="Rectangle_18265" data-name="Rectangle 18265" width="50" height="50" transform="translate(-7185 11028.816) rotate(45)" fill="#fff"/>
    <g id="Group_69634_1_" data-name="Group 69634 (1)" transform="translate(-7212.998 11036.172)">
      <path id="Path_1" data-name="Path 1" d="M157.647,52.876h-28V80.869Z" transform="translate(-101.653 -24.869)" fill="#91002c"/>
      <path id="Path_2" data-name="Path 2" d="M129.644,0V28.007h28Z" transform="translate(-101.653)" fill="#a70336"/>
      <path id="Path_3" data-name="Path 3" d="M104.789,0,76.8,28.007h27.991Z" transform="translate(-76.798)" fill="#d31148"/>
      <path id="Path_4" data-name="Path 4" d="M104.789,80.869V52.876H76.8Z" transform="translate(-76.798 -24.869)" fill="#a70336"/>
      <path id="Path_5" data-name="Path 5" d="M130.56,68.365l-8.1-8.542-8.1,8.542,8.1-6.871Z" transform="translate(-94.465 -28.136)" fill="#fff"/>
      <path id="Path_6" data-name="Path 6" d="M130.325,74.223l-6.035-6.358-6.029,6.358,6.029-5.316Z" transform="translate(-96.299 -31.919)" fill="#fff"/>
      <path id="Path_7" data-name="Path 7" d="M130.09,80.075l-3.958-4.165-3.955,4.165,3.955-3.757Z" transform="translate(-98.141 -35.703)" fill="#fff"/>
      <path id="Path_8" data-name="Path 8" d="M129.864,85.93l-1.893-1.985-1.884,1.985,1.884-1.782Z" transform="translate(-99.981 -39.482)" fill="#fff"/>
      <path id="Path_9" data-name="Path 9" d="M130.79,54.023,122.047,43.86l8.743-10.129-10.181,8.7-10.175-8.7,8.733,10.141-8.733,10.152L120.609,45.3Z" transform="translate(-92.618 -15.865)" fill="#fff"/>
      <path id="Path_10" data-name="Path 10" d="M96.726,51.221l-1.945-1.84,1.752,1.86-1.752,1.851Z" transform="translate(-85.256 -23.225)" fill="#fff"/>
      <path id="Path_11" data-name="Path 11" d="M102.828,49.376l-4.115-3.917,3.706,3.938-3.706,3.921Z" transform="translate(-87.105 -21.381)" fill="#fff"/>
      <path id="Path_12" data-name="Path 12" d="M108.924,47.535l-6.314-5.991,5.253,6L102.61,53.55Z" transform="translate(-88.938 -19.539)" fill="#fff"/>
      <path id="Path_13" data-name="Path 13" d="M115.014,45.7l-8.479-8.063,6.8,8.074-6.8,8.079Z" transform="translate(-90.784 -17.7)" fill="#fff"/>
      <path id="Path_14" data-name="Path 14" d="M160.857,51.241l1.941,1.851-1.753-1.851,1.753-1.86Z" transform="translate(-116.334 -23.225)" fill="#fff"/>
      <path id="Path_15" data-name="Path 15" d="M152.82,49.4l4.112,3.921-3.7-3.93,3.706-3.929Z" transform="translate(-112.553 -21.381)" fill="#fff"/>
      <path id="Path_16" data-name="Path 16" d="M144.8,47.546l6.3,6.005-5.259-6.005,5.259-6Z" transform="translate(-108.781 -19.539)" fill="#fff"/>
      <path id="Path_17" data-name="Path 17" d="M145.25,37.633l-8.491,8.083,8.491,8.07-6.823-8.07Z" transform="translate(-105 -17.7)" fill="#fff"/>
      <path id="Path_18" data-name="Path 18" d="M130.56,29.8l-8.1,6.872-8.1-6.872,8.1,8.547Z" transform="translate(-94.465 -14.017)" fill="#fff"/>
      <path id="Path_19" data-name="Path 19" d="M130.325,25.9l-6.035,5.313L118.261,25.9l6.029,6.352Z" transform="translate(-96.299 -12.179)" fill="#fff"/>
      <path id="Path_20" data-name="Path 20" d="M130.09,21.971l-3.958,3.76-3.955-3.76,3.955,4.175Z" transform="translate(-98.141 -10.333)" fill="#fff"/>
      <path id="Path_21" data-name="Path 21" d="M129.852,18.068l-1.881,1.784-1.883-1.784,1.883,1.977Z" transform="translate(-99.981 -8.498)" fill="#fff"/>
    </g>
  </g>
</svg>
