<svg xmlns="http://www.w3.org/2000/svg" width="20" height="20" viewBox="0 0 20 20">
    <defs>
        <clipPath id="hng41god9a">
            <path data-name="Rectangle 24107" transform="translate(216 387)" style="stroke:#707070;fill:#d31148" d="M0 0h20v20H0z"/>
        </clipPath>
    </defs>
    <g data-name="Mask Group 205" transform="translate(-216 -387)" style="clip-path:url(#hng41god9a)">
        <path data-name="Path 3528" d="M1983.833-1323.667h-11.667v.833a.834.834 0 0 1-.833.833h-.833a.834.834 0 0 1-.833-.833v-6.25l-1.036-.259a.832.832 0 0 1-.631-.808v-.6a.417.417 0 0 1 .417-.417h1.25l2.067-4.823a1.666 1.666 0 0 1 1.533-1.01h9.467a1.666 1.666 0 0 1 1.531 1.01l2.069 4.823h1.25a.417.417 0 0 1 .417.417v.6a.832.832 0 0 1-.631.808l-1.036.259v6.25a.834.834 0 0 1-.833.833h-.833a.833.833 0 0 1-.833-.833zm.833-1.667v-4.167h-13.333v4.167zm-12.1-5.833h10.872a.831.831 0 0 0 .689-.366.835.835 0 0 0 .084-.777l-1.209-3.024h-10l-1.209 3.024a.835.835 0 0 0 .084.777.832.832 0 0 0 .687.366zm-.4 2.5q2.9 0 3.905 1.887a.418.418 0 0 1-.01.411.415.415 0 0 1-.358.2H1973a.833.833 0 0 1-.833-.833zm11.667 0v1.667a.834.834 0 0 1-.833.833h-2.7a.416.416 0 0 1-.357-.2.418.418 0 0 1-.01-.411q1.003-1.889 3.9-1.889z" transform="translate(-1752 1726.5)" style="stroke:#fcecf0;stroke-width:.3px;fill:#d31148"/>
    </g>
</svg>
