<svg xmlns="http://www.w3.org/2000/svg" width="16" height="16" viewBox="0 0 16 16">
    <defs>
        <clipPath id="w4x2qrqq6a">
            <path data-name="Rectangle 24045" transform="translate(216 387)" style="fill:#fff;stroke:#707070" d="M0 0h16v16H0z"/>
        </clipPath>
        <clipPath id="dr5ohthpcb">
            <path data-name="Path 1345" d="M602-1320.206a.8.8 0 0 1 .794-.794h14.413a.794.794 0 0 1 .794.794v12.811a.8.8 0 0 1-.794.794h-14.413a.8.8 0 0 1-.794-.794zm1.6.805v11.2h12.8v-11.2zm1.6 1.6h4.8v4.8h-4.8zm1.6 1.6v1.6h1.6v-1.6zm-1.6 4.8h9.6v1.6h-9.6zm6.4-6.4h3.2v1.6h-3.2zm0 3.2h3.2v1.6h-3.2z" style="fill:none"/>
        </clipPath>
        <clipPath id="08222x7u9c">
            <path data-name="Path 1344" d="M-200-302h2995.2v-2008H-200z" transform="translate(200 2310)" style="fill:none"/>
        </clipPath>
    </defs>
    <g data-name="Mask Group 180" transform="translate(-216 -387)" style="clip-path:url(#w4x2qrqq6a)">
        <g data-name="Group 898" transform="translate(-386 1708.8)" style="clip-path:url(#dr5ohthpcb)">
            <g data-name="Group 897" transform="translate(-39.6 -2112.2)" style="clip-path:url(#08222x7u9c)">
                <path data-name="Path 1343" d="M637.6 787.2h24v22.4h-24z"/>
            </g>
        </g>
    </g>
</svg>
