<svg xmlns="http://www.w3.org/2000/svg" width="80" height="80" viewBox="0 0 80 80">
    <defs>
        <clipPath id="ptn4idld4a">
            <path data-name="Rectangle 24119" transform="translate(321 229)" style="stroke:#707070;fill:#fff" d="M0 0h80v80H0z"/>
        </clipPath>
        <clipPath id="lwus3fsy1b">
            <path data-name="Path 62969" d="M1337.482-346.5a22.22 22.22 0 0 0 3.083 6.389h-26.393a3.2 3.2 0 0 1-3.172-3.169v-57.551a3.18 3.18 0 0 1 3.191-3.169h38.337l15.972 15.972v14.928a22.2 22.2 0 0 0-6.389-1.926v-9.81h-12.778v-12.778h-31.944v51.114z" transform="translate(-1311 404)" style="fill:#2b3"/>
        </clipPath>
        <clipPath id="zuotsvn4ic">
            <path data-name="Path 62968" d="M-200 5708.056h11960V-2310H-200z" transform="translate(200 2310)" style="fill:#2b3"/>
        </clipPath>
    </defs>
    <g data-name="Group 71595">
        <path data-name="Path 62970" d="M0 0h36.445L50 12.655v43.182H0z" transform="translate(13 13)" style="fill:#fff"/>
        <g data-name="Mask Group 215" transform="translate(-321 -229)" style="clip-path:url(#ptn4idld4a)">
            <g data-name="Group 71594">
                <g data-name="Group 71593" style="clip-path:url(#lwus3fsy1b)" transform="translate(328.292 237.055)">
                    <g data-name="Group 71592" transform="translate(-4826.806 -6088.611)" style="clip-path:url(#zuotsvn4ic)">
                        <path data-name="Path 62967" d="M1306-409h95.833v99.028H1306z" transform="translate(3504.833 6481.639)" style="fill:#2b3"/>
                    </g>
                </g>
                <path data-name="Path 62965" d="m124.136-485.964 18.054-18.057 2.779 2.777-20.833 20.834-12.5-12.5 2.777-2.777z" transform="translate(248.738 778.16)" style="stroke:#2b3;fill:#2b3"/>
            </g>
        </g>
    </g>
</svg>
