<svg xmlns="http://www.w3.org/2000/svg" width="40" height="40" viewBox="0 0 40 40">
    <defs>
        <clipPath id="fmq0z8a3da">
            <path data-name="Rectangle 24119" style="stroke:#707070;fill:#fff" d="M0 0h40v40H0z"/>
        </clipPath>
        <clipPath id="aipuxzqsvb">
            <path data-name="Rectangle 24042" style="fill:#191919;stroke:#707070" d="M0 0h40v40H0z"/>
        </clipPath>
    </defs>
    <g data-name="Group 71716">
        <g data-name="Mask Group 215" style="clip-path:url(#fmq0z8a3da)">
            <g data-name="Mask Group 178" style="clip-path:url(#aipuxzqsvb)">
                <g data-name="Group 69702">
                    <path data-name="Path 62888" d="M5.25 15.75v-4a6.494 6.494 0 0 1 6.5-6.5h4a1.5 1.5 0 0 0 0-3h-4a9.5 9.5 0 0 0-9.5 9.5v4a1.5 1.5 0 0 0 3 0zm22.5-10.5h4a6.494 6.494 0 0 1 6.5 6.5v4a1.5 1.5 0 1 0 3 0v-4a9.5 9.5 0 0 0-9.5-9.5h-4a1.5 1.5 0 1 0 0 3zm-25.5 22.5v4a9.5 9.5 0 0 0 9.5 9.5h4a1.5 1.5 0 1 0 0-3h-4a6.494 6.494 0 0 1-6.5-6.5v-4a1.5 1.5 0 1 0-3 0zm25.5 13.5h4a9.5 9.5 0 0 0 9.5-9.5v-4a1.5 1.5 0 1 0-3 0v4a6.494 6.494 0 0 1-6.5 6.5h-4a1.5 1.5 0 1 0 0 3zm-.5-26.5v2a1.5 1.5 0 0 0 3 0v-2a1.5 1.5 0 1 0-3 0zm-14 0v2a1.5 1.5 0 1 0 3 0v-2a1.5 1.5 0 0 0-3 0zm8 8.072V17.75a1.5 1.5 0 0 1 3 0v6a1.5 1.5 0 0 1-.83 1.342l-2 1a1.5 1.5 0 1 1-1.34-2.684zm6.44 4.868a1.5 1.5 0 0 1 2.12 2.12c-.272.272 0 0 0 0a11.4 11.4 0 0 1-16.116 0 1.5 1.5 0 0 1 2.12-2.12c.272.272 0 0 0 0a8.4 8.4 0 0 0 11.872 0z" transform="translate(-1.75 -1.75)" style="fill:#191919"/>
                </g>
            </g>
        </g>
    </g>
</svg>
