<svg xmlns="http://www.w3.org/2000/svg" width="40" height="40" viewBox="0 0 40 40">
    <defs>
        <clipPath id="fx34kfgwva">
            <path data-name="Rectangle 24300" transform="translate(158 145)" style="fill:#191919;stroke:#707070" d="M0 0h40v40H0z"/>
        </clipPath>
    </defs>
    <g data-name="Mask Group 250" transform="translate(-158 -145)" style="clip-path:url(#fx34kfgwva)">
        <g data-name="Group 72572">
            <path data-name="Path 63096" d="M37.05 38.352a.65.65 0 0 1-.65.65H2.6a.65.65 0 0 1 0-1.3h3.819V11.134H4.631a.65.65 0 0 1-.65-.65V4.065a.65.65 0 0 1 .65-.65h9.936c4.037.036 3.652-.046 8.021 0h11.781a.65.65 0 0 1 .65.65v6.419a.65.65 0 0 1-.65.65h-5.931V37.7h2.844V13.713a.65.65 0 0 1 1.3 0V37.7H36.4a.65.65 0 0 1 .65.652zM10.563 37.7V14.069a.65.65 0 1 1 1.3 0V37.7h15.275V10.484a.65.65 0 0 1 .65-.65h5.931V4.715H5.281v5.119h18.7a.65.65 0 0 1 0 1.3H7.719V37.7h2.844z" transform="translate(158.5 143.799)" style="stroke:#000"/>
        </g>
    </g>
</svg>
