<svg xmlns="http://www.w3.org/2000/svg" width="16" height="16" viewBox="0 0 16 16">
    <defs>
        <clipPath id="9vbqkipzla">
            <path data-name="Rectangle 24045" transform="translate(216 387)" style="fill:#fff;stroke:#707070" d="M0 0h16v16H0z"/>
        </clipPath>
    </defs>
    <g data-name="Mask Group 180" transform="translate(-216 -387)" style="clip-path:url(#9vbqkipzla)">
        <g data-name="Group 71530">
            <path data-name="Path 62939" d="m224.633 397.964-1.848-1.825.022-.022a12.742 12.742 0 0 0 2.7-4.749h2.131v-1.458h-5.093v-1.455h-1.454v1.455H216v1.447h8.124a11.486 11.486 0 0 1-2.305 3.9 11.469 11.469 0 0 1-1.681-2.435h-1.454a12.772 12.772 0 0 0 2.167 3.316l-3.7 3.655 1.031 1.029 3.636-3.64 2.262 2.262.553-1.48zm4.095-3.691h-1.455L224 403h1.455l.818-2.182h3.455l.818 2.182H232zm-1.909 5.091 1.181-3.153 1.182 3.153z"/>
        </g>
    </g>
</svg>
