<svg xmlns="http://www.w3.org/2000/svg" width="16" height="15.866" viewBox="0 0 16 15.866">
    <defs>
        <clipPath id="d7gilxlgxa">
            <path data-name="Path 1291" d="m710.194-1210.283 7.4-4.435a.8.8 0 0 1 .823 0l7.391 4.436a.4.4 0 0 1 .194.343v10.173a.8.8 0 0 1-.8.8H710.8a.8.8 0 0 1-.8-.8v-10.174a.4.4 0 0 1 .194-.343zm1.406 1.023v8.693h12.8v-8.694l-6.4-3.84-6.4 3.84zm6.448 4.452 4.237-3.57 1.03 1.224-5.256 4.429-5.368-4.424 1.018-1.235 4.339 3.576z" style="fill:#d31148"/>
        </clipPath>
        <clipPath id="0y118l2cob">
            <path data-name="Path 1290" d="M-200-302h2995.2v-2008H-200z" transform="translate(200 2310)" style="fill:#d31148"/>
        </clipPath>
    </defs>
    <g data-name="Group 862" transform="translate(-710 1214.833)" style="clip-path:url(#d7gilxlgxa)">
        <g data-name="Group 861" transform="translate(-18 -2090.967)" style="clip-path:url(#0y118l2cob)">
            <path data-name="Path 1289" d="M705-1219.833h24v23.866h-24z" transform="translate(19 2091.967)" style="fill:#d31148"/>
        </g>
    </g>
</svg>
