<svg xmlns="http://www.w3.org/2000/svg" xmlns:xlink="http://www.w3.org/1999/xlink" width="114.141" height="114.142" viewBox="0 0 114.141 114.142">
  <defs>
    <clipPath id="clip-path">
      <rect id="Rectangle_18269" data-name="Rectangle 18269" width="80.71" height="80.71" transform="translate(1858.8 11706.463) rotate(45)" fill="#fff"/>
    </clipPath>
  </defs>
  <g id="MICH" transform="translate(-1801.73 -11706.463)" clip-path="url(#clip-path)">
    <g id="Group_41564" data-name="Group 41564" transform="translate(1818.63 11715.362)">
      <rect id="Rectangle_18268" data-name="Rectangle 18268" width="65.57" height="65.57" transform="translate(40.467 2.101) rotate(45)" fill="#d31148"/>
      <g id="Group_41563" data-name="Group 41563" transform="translate(21.87 30.1)">
        <path id="Path_583" data-name="Path 583" d="M15.306-1633.814v-.889H12.639v-2.666h2.667v1.777h1.778v1.778h-.889v1.777H14.417v1.777H12.639v-2.666h1.778v-.889Zm4.444,3.562H16.194v-1.777h1.778v-1.777H19.75Zm-16-15.995h7.111v7.109H3.75Zm1.778,1.777v3.555H9.083v-3.555Zm7.111-1.777H19.75v7.109H12.639Zm1.778,1.777v3.555h3.556v-3.555ZM3.75-1637.353h7.111v7.106H3.75Zm1.778,1.777v3.555H9.083v-3.555Zm11.556-1.777H19.75v1.777H17.083Zm-10.666-6.22H8.194v1.778H6.417Zm0,8.886H8.194v1.777H6.417Zm8.889-8.886h1.778v1.778H15.306Z" transform="translate(6.981 1646.247)" fill="#fff" stroke="#d31148" stroke-width="0.625"/>
        <path id="My_Pass" data-name="My Pass" d="M8.11-6.82H6.62L4.43-4.23,2.27-6.82H.76V0H2.48V-4.17l1.83,2.2h.25l1.83-2.2V0H8.11Zm5.85,2.21H12.44L11.4-2.33l-.97-2.28H8.88l1.8,3.86L9.33,2.21h1.54Zm3.55-2.21V0h1.72V-2.74h1.01a2.852,2.852,0,0,0,1.61-.32,2.034,2.034,0,0,0,.98-1.74,1.99,1.99,0,0,0-1.04-1.74,2.979,2.979,0,0,0-1.49-.28Zm2.32,1.26c.49,0,1.24,0,1.24.77,0,.8-.73.8-1.28.8h-.56V-5.56Zm8.45,4.42a1.309,1.309,0,0,1-.56.22c-.23,0-.23-.21-.23-.37V-3.11a1.508,1.508,0,0,0-.14-.84c-.41-.74-1.58-.75-1.81-.75a3.725,3.725,0,0,0-2.01.56v1.18a2.493,2.493,0,0,1,1.71-.78c.8,0,.79.54.79.78-.21.06-1.23.39-1.46.47-.34.12-1.28.45-1.28,1.37A1.22,1.22,0,0,0,24.58.09,2.644,2.644,0,0,0,26.1-.42c.05.18.14.51.82.51a2.976,2.976,0,0,0,1.36-.42Zm-2.25.02a1.239,1.239,0,0,1-.81.34.478.478,0,0,1-.46-.49c0-.41.41-.61.54-.67.11-.05.63-.25.73-.29Zm6.01-3.24a3.027,3.027,0,0,0-1.51-.34c-1.22,0-1.88.65-1.88,1.43a1.265,1.265,0,0,0,.61,1.1,6.076,6.076,0,0,0,.77.36c.7.29.88.36.88.62,0,.19-.22.35-.7.35a3.131,3.131,0,0,1-1.47-.43V-.25a4.057,4.057,0,0,0,1.65.34c1.18,0,1.88-.53,1.88-1.47s-.82-1.27-1.73-1.63c-.47-.2-.57-.27-.57-.45,0-.3.51-.32.64-.32a3.158,3.158,0,0,1,1.43.45Zm4.27,0A3.027,3.027,0,0,0,34.8-4.7c-1.22,0-1.88.65-1.88,1.43a1.265,1.265,0,0,0,.61,1.1,6.076,6.076,0,0,0,.77.36c.7.29.88.36.88.62,0,.19-.22.35-.7.35a3.131,3.131,0,0,1-1.47-.43V-.25a4.057,4.057,0,0,0,1.65.34c1.18,0,1.88-.53,1.88-1.47s-.82-1.27-1.73-1.63c-.47-.2-.57-.27-.57-.45,0-.3.51-.32.64-.32a3.158,3.158,0,0,1,1.43.45Z" transform="translate(0.23 34.504)" fill="#fff"/>
      </g>
    </g>
  </g>
</svg>
