<svg xmlns="http://www.w3.org/2000/svg" width="16" height="16" viewBox="0 0 16 16">
    <defs>
        <clipPath id="oskuxx1c0a">
            <path data-name="Rectangle 24045" transform="translate(216 387)" style="fill:#fff;stroke:#707070" d="M0 0h16v16H0z"/>
        </clipPath>
        <clipPath id="7hnkdbrnbb">
            <path data-name="Path 930" d="M509.2-2004.6h-14.4a.8.8 0 0 1-.8-.8v-6.01a.8.8 0 0 1 .274-.6l2.926-2.551v-3.635a.8.8 0 0 1 .8-.8h11.2a.8.8 0 0 1 .8.8v12.8a.8.8 0 0 1-.8.796zm-9.6-1.6h2.4v-4.846l-3.2-2.791-3.2 2.791v4.846h2.4v-3.2h1.6zm4 0h4.8v-11.2h-9.6v1.7a.8.8 0 0 1 .526.2l4 3.487a.8.8 0 0 1 .274.6zm1.6-6.4h1.6v1.6h-1.6zm0 3.2h1.6v1.6h-1.6zm0-6.4h1.6v1.6h-1.6zm-3.2 0h1.6v1.6H502z" style="fill:none"/>
        </clipPath>
        <clipPath id="yiepcnkjfc">
            <path data-name="Path 929" d="M-200-302h2995.2v-2008H-200z" transform="translate(200 2310)" style="fill:none"/>
        </clipPath>
    </defs>
    <g data-name="Mask Group 180" transform="translate(-216 -387)" style="clip-path:url(#oskuxx1c0a)">
        <g data-name="Group 620" transform="translate(-278 2406.8)" style="clip-path:url(#7hnkdbrnbb)">
            <g data-name="Group 619" transform="translate(-61.2 -2251.8)" style="clip-path:url(#yiepcnkjfc)">
                <path data-name="Path 928" d="M551.2 228.8h24v22.4h-24z"/>
            </g>
        </g>
    </g>
</svg>
