<svg xmlns="http://www.w3.org/2000/svg" width="24" height="24" viewBox="0 0 24 24">
    <defs>
        <clipPath id="2mqisoddva">
            <path data-name="Rectangle 24338" transform="translate(45.68 -3.744)" style="fill:#fff;stroke:#707070" d="M0 0h24v24H0z"/>
        </clipPath>
        <clipPath id="4dk4u451ab">
            <path data-name="Path 1448" d="m1810.89-934.172 7.982-7.849 1.438 1.414-1.438 1.415 2.516 2.474-1.438 1.415-2.517-2.475-1.438 1.414 2.157 2.121-1.438 1.415-2.157-2.122-2.229 2.192a4.945 4.945 0 0 1-1.032 6.624 5.15 5.15 0 0 1-6.806-.33 4.939 4.939 0 0 1-.35-6.7 5.144 5.144 0 0 1 6.75-1.008zm-.648 6.293a2.967 2.967 0 0 0 .857-2.929 3.024 3.024 0 0 0-2.192-2.155 3.085 3.085 0 0 0-2.979.843 2.964 2.964 0 0 0 .038 4.206 3.087 3.087 0 0 0 4.276.036z" transform="translate(-1802.993 942.021)" style="fill:none"/>
        </clipPath>
        <clipPath id="dzyxycpkoc">
            <path data-name="Path 1447" d="M-200 200h3807.45v-2510H-200z" transform="translate(200 2310)" style="fill:none"/>
        </clipPath>
    </defs>
    <g data-name="Mask Group 265" transform="translate(-45.68 3.744)" style="clip-path:url(#2mqisoddva)">
        <g data-name="Group 968" transform="translate(48.482 -.744)" style="clip-path:url(#4dk4u451ab)">
            <g data-name="Group 967" transform="translate(-2036.938 -1367.979)" style="clip-path:url(#dzyxycpkoc)">
                <path data-name="Path 1446" d="M2031.853 1362.979h28.564v27.015h-28.564z"/>
            </g>
        </g>
    </g>
</svg>
