<svg data-name="Group 69634" xmlns="http://www.w3.org/2000/svg" width="55.994" height="56" viewBox="0 0 55.994 56">
    <path data-name="Path 1" d="M157.647 52.876h-28v27.993z" transform="translate(-101.653 -24.869)" style="fill:#91002c"/>
    <path data-name="Path 2" d="M129.644 0v28.007h28z" transform="translate(-101.653)" style="fill:#a70336"/>
    <path data-name="Path 3" d="M104.789 0 76.8 28.007h27.991z" transform="translate(-76.798)" style="fill:#d31148"/>
    <path data-name="Path 4" d="M104.789 80.869V52.876H76.8z" transform="translate(-76.798 -24.869)" style="fill:#a70336"/>
    <path data-name="Path 5" d="m130.56 68.365-8.1-8.542-8.095 8.542 8.095-6.871z" transform="translate(-94.465 -28.136)" style="fill:#fff"/>
    <path data-name="Path 6" d="m130.325 74.223-6.035-6.358-6.029 6.358 6.029-5.316z" transform="translate(-96.299 -31.919)" style="fill:#fff"/>
    <path data-name="Path 7" d="m130.09 80.075-3.958-4.165-3.955 4.165 3.955-3.757z" transform="translate(-98.141 -35.703)" style="fill:#fff"/>
    <path data-name="Path 8" d="m129.864 85.93-1.893-1.985-1.884 1.985 1.884-1.782z" transform="translate(-99.981 -39.482)" style="fill:#fff"/>
    <path data-name="Path 9" d="m130.79 54.023-8.743-10.163 8.743-10.129-10.181 8.7-10.175-8.7 8.733 10.141-8.733 10.152 10.175-8.728z" transform="translate(-92.618 -15.865)" style="fill:#fff"/>
    <path data-name="Path 10" d="m96.726 51.221-1.945-1.84 1.752 1.86-1.752 1.851z" transform="translate(-85.256 -23.225)" style="fill:#fff"/>
    <path data-name="Path 11" d="m102.828 49.376-4.115-3.917 3.706 3.938-3.706 3.921z" transform="translate(-87.105 -21.381)" style="fill:#fff"/>
    <path data-name="Path 12" d="m108.924 47.535-6.314-5.991 5.253 6-5.253 6.006z" transform="translate(-88.938 -19.539)" style="fill:#fff"/>
    <path data-name="Path 13" d="m115.014 45.7-8.479-8.063 6.8 8.074-6.8 8.079z" transform="translate(-90.784 -17.7)" style="fill:#fff"/>
    <path data-name="Path 14" d="m160.857 51.241 1.941 1.851-1.753-1.851 1.753-1.86z" transform="translate(-116.334 -23.225)" style="fill:#fff"/>
    <path data-name="Path 15" d="m152.82 49.4 4.112 3.921-3.7-3.93 3.706-3.929z" transform="translate(-112.553 -21.381)" style="fill:#fff"/>
    <path data-name="Path 16" d="m144.8 47.546 6.3 6.005-5.259-6.005 5.259-6z" transform="translate(-108.781 -19.539)" style="fill:#fff"/>
    <path data-name="Path 17" d="m145.25 37.633-8.491 8.083 8.491 8.07-6.823-8.07z" transform="translate(-105 -17.7)" style="fill:#fff"/>
    <path data-name="Path 18" d="m130.56 29.8-8.1 6.872-8.099-6.872 8.095 8.547z" transform="translate(-94.465 -14.017)" style="fill:#fff"/>
    <path data-name="Path 19" d="m130.325 25.9-6.035 5.313-6.029-5.313 6.029 6.352z" transform="translate(-96.299 -12.179)" style="fill:#fff"/>
    <path data-name="Path 20" d="m130.09 21.971-3.958 3.76-3.955-3.76 3.955 4.175z" transform="translate(-98.141 -10.333)" style="fill:#fff"/>
    <path data-name="Path 21" d="m129.852 18.068-1.881 1.784-1.883-1.784 1.883 1.977z" transform="translate(-99.981 -8.498)" style="fill:#fff"/>
</svg>
