<svg xmlns="http://www.w3.org/2000/svg" width="24" height="24" viewBox="0 0 24 24">
    <defs>
        <clipPath id="2787y5izqa">
            <path data-name="Rectangle 24045" style="fill:#fff;stroke:#707070" d="M0 0h24v24H0z"/>
        </clipPath>
    </defs>
    <g data-name="Mask Group 180" style="clip-path:url(#2787y5izqa)">
        <g data-name="Group 72270">
            <path data-name="Path 63317" d="M21.07 15.881a6.628 6.628 0 0 0-9.571.238 6.606 6.606 0 1 0-9.4 9.265 2.315 2.315 0 0 0 1.3 3.953A2.317 2.317 0 0 0 5.7 31.8a2.314 2.314 0 0 0 2.889 2.074 2.316 2.316 0 0 0 3.864 1.031c.707-.7 1.268-1.145 1.3-2.209a2.318 2.318 0 0 0 2.2-2.223 2.317 2.317 0 0 0 2.224-2.224 2.318 2.318 0 0 0 2.223-2.364l.671-.671a6.607 6.607 0 0 0-.001-9.333zM3.11 26.459l.63-.63a.835.835 0 0 1 1.181 1.181l-.63.63a.835.835 0 0 1-1.181-1.181zM4.867 29.5a.83.83 0 0 1 .245-.591l.63-.63a.835.835 0 0 1 1.181 1.181l-.556.556a.876.876 0 0 1-.665.319.839.839 0 0 1-.835-.835zm2.543 2.74a.839.839 0 0 1 0-1.181l.556-.556a.846.846 0 0 1 1.255-.074.836.836 0 0 1 0 1.181l-.63.63a.836.836 0 0 1-1.182-.004zm4.628 1-.63.63a.835.835 0 0 1-1.181 0 .839.839 0 0 1 0-1.181l.63-.63a.835.835 0 1 1 1.181 1.181zm6.644-6.7a.839.839 0 0 1-1.181 0l-3.281-3.281-1.044 1.041 3.281 3.281a.835.835 0 1 1-1.181 1.181l-3.226-3.227-.056-.056-1.043 1.043.056.056 3.226 3.222a.835.835 0 1 1-1.181 1.181 2.311 2.311 0 0 0-2.193-.572 2.321 2.321 0 0 0-2.224-1.707 2.318 2.318 0 0 0-2-2.13A2.315 2.315 0 0 0 3.2 24.4a5.135 5.135 0 1 1 7.254-7.241l-1.82 1.826 1.461 1.461a3.343 3.343 0 0 0 4.14.463l4.447 4.447a.836.836 0 0 1-.001 1.181zm1.347-2.365-.229.225-.079-.083-5.431-5.431-.521.521a1.865 1.865 0 0 1-2.634 0l-.418-.418 2.061-2.061a5.125 5.125 0 0 1 7.248 7.248z" transform="translate(.5 -12.239)" style="stroke:#000;stroke-width:.5px"/>
        </g>
    </g>
</svg>
