<svg xmlns="http://www.w3.org/2000/svg" width="24" height="24" viewBox="0 0 24 24">
    <defs>
        <clipPath id="x8d0xev9la">
            <path data-name="Rectangle 24340" transform="translate(45.68 -3.744)" style="fill:#fff;stroke:#707070" d="M0 0h24v24H0z"/>
        </clipPath>
        <clipPath id="wv8x96w5jb">
            <path data-name="Path 63509" d="m1809.716-935.338 6.8-6.682 1.224 1.2-1.224 1.2 2.142 2.106-1.224 1.2-2.143-2.107-1.224 1.2 1.836 1.806-1.224 1.2-1.841-1.785-1.9 1.866a4.211 4.211 0 0 1-.879 5.64 4.385 4.385 0 0 1-5.8-.281 4.2 4.2 0 0 1-.3-5.708 4.38 4.38 0 0 1 5.757-.855zm-.552 5.358a2.526 2.526 0 0 0 .73-2.494 2.574 2.574 0 0 0-1.866-1.835 2.627 2.627 0 0 0-2.536.718 2.524 2.524 0 0 0 .032 3.581 2.628 2.628 0 0 0 3.641.031z" transform="translate(-1802.993 942.021)" style="fill:none"/>
        </clipPath>
        <clipPath id="6s1j5z6m9c">
            <path data-name="Path 63508" d="M-200-172.989h3241.658V-2310H-200z" transform="translate(200 2310)" style="fill:none"/>
        </clipPath>
    </defs>
    <g data-name="Mask Group 267" transform="translate(-45.68 3.744)" style="clip-path:url(#x8d0xev9la)">
        <g data-name="Group 72748" transform="rotate(45 36.674 65.438)" style="clip-path:url(#wv8x96w5jb)">
            <g data-name="Group 72747" transform="translate(-1734.246 -1164.696)" style="clip-path:url(#6s1j5z6m9c)">
                <path data-name="Path 63507" d="M1729.918 1160.439h24.319v23h-24.319z"/>
            </g>
        </g>
        <g data-name="Group 72749">
            <path data-name="Path 63510" d="M39.88 83.454a1.68 1.68 0 0 0-.918-.943 1.653 1.653 0 0 0-1.295 0l-2.984 1.267A1.616 1.616 0 0 0 33.076 82H29.5a2.344 2.344 0 0 1-1.043-.246 10.837 10.837 0 0 0-4.822-1.138h-1.17a.462.462 0 0 0-.465-.463h-6v.923h5.538v5.538H16v.923h6a.462.462 0 0 0 .462-.462V86.9l3.446 1.431a7.986 7.986 0 0 0 5.873.065l7.13-2.719a1.679 1.679 0 0 0 .943-.9 1.708 1.708 0 0 0 .027-1.325zm-.872.952a.762.762 0 0 1-.427.409l-7.13 2.718a7.063 7.063 0 0 1-5.193-.056l-3.8-1.577v-4.362h1.17a9.909 9.909 0 0 1 4.409 1.041 3.273 3.273 0 0 0 1.456.344h3.58a.692.692 0 1 1 .027 1.383h-5.562v.923h5.638a2.852 2.852 0 0 0 1-.225l3.858-1.638a.736.736 0 0 1 .577 0 .764.764 0 0 1 .417.43.792.792 0 0 1-.013.614z" transform="translate(28.68 -70.767)" style="stroke:#000;stroke-width:.5px"/>
        </g>
    </g>
</svg>
