<svg xmlns="http://www.w3.org/2000/svg" width="24" height="24" viewBox="0 0 24 24">
    <defs>
        <clipPath id="clip-path">
            <path id="Rectangle_23756" data-name="Rectangle 23756" transform="translate(54 771)" style="stroke:#707070;fill:#fff" d="M0 0h24v24H0z"/>
        </clipPath>
        <clipPath id="clip-path-2">
            <path id="Path_62627" data-name="Path 62627" d="M-200 200h3744v-2510H-200z" style="fill:none;stroke:#707070"/>
        </clipPath>
        <style>
            
        </style>
    </defs>
    <g id="Mask_Group_94" data-name="Mask Group 94" transform="translate(-54 -771)" style="clip-path:url(#clip-path)">
        <path id="Path_62895" data-name="Path 62895" d="M2682.659-1760.478a2.329 2.329 0 0 0 2.329-2.329 2.329 2.329 0 0 0-2.329-2.329 2.329 2.329 0 0 0-2.329 2.329 2.329 2.329 0 0 0 2.329 2.329zm0 1.863a4.193 4.193 0 0 1-3.631-2.1 4.192 4.192 0 0 1 0-4.193 4.193 4.193 0 0 1 3.631-2.1 4.193 4.193 0 0 1 4.193 4.193 4.193 4.193 0 0 1-4.193 4.193zm9.783 1.864a1.863 1.863 0 0 0 1.864-1.864 1.863 1.863 0 0 0-1.864-1.863 1.863 1.863 0 0 0-1.863 1.863 1.863 1.863 0 0 0 1.863 1.864zm0 1.864a3.727 3.727 0 0 1-3.727-3.727 3.727 3.727 0 0 1 3.727-3.727 3.727 3.727 0 0 1 3.727 3.727 3.727 3.727 0 0 1-3.727 3.727zm2.329 5.59v-.466a2.329 2.329 0 0 0-2.329-2.329 2.329 2.329 0 0 0-2.329 2.329v.466h-1.864v-.466a4.193 4.193 0 0 1 2.1-3.631 4.192 4.192 0 0 1 4.193 0 4.193 4.193 0 0 1 2.1 3.631v.466zm-9.317 0v-3.727a2.8 2.8 0 0 0-2.8-2.8 2.8 2.8 0 0 0-2.8 2.8v3.727H2678v-3.727a4.659 4.659 0 0 1 4.659-4.659 4.659 4.659 0 0 1 4.659 4.659v3.727z" transform="translate(-2621.317 2541.148)" style="fill:#191919;stroke:#fff;stroke-width:.2px"/>
    </g>
</svg>
