<svg xmlns="http://www.w3.org/2000/svg" width="24" height="24" viewBox="0 0 24 24">
    <defs>
        <clipPath id="5c0l6bv99a">
            <path data-name="Rectangle 18" transform="translate(56 765)" style="stroke:#707070;fill:#191919" d="M0 0h24v24H0z"/>
        </clipPath>
        <clipPath id="jj3pv1mztb">
            <path data-name="Path 62862" d="M1254-1786h-4v2h-2v-2h-1a1 1 0 0 1-1-1v-15a1 1 0 0 1 1-1h7v-1.41a.5.5 0 0 1 .177-.381.5.5 0 0 1 .405-.112l10.582 1.764a1 1 0 0 1 .836.986v2.153h1v2h-1v7h1v2h-1v2.153a1 1 0 0 1-.836.986l-1.164.194v1.667h-2v-1.333l-7.418 1.236a.5.5 0 0 1-.405-.112.5.5 0 0 1-.177-.381zm2-.36 8-1.334v-13.612l-8-1.333v16.278zm4.5-5.64c-.828 0-1.5-1.12-1.5-2.5s.672-2.5 1.5-2.5 1.5 1.12 1.5 2.5-.672 2.5-1.5 2.5z" style="stroke:#fff;stroke-width:.5px;fill:#191919"/>
        </clipPath>
        <clipPath id="y43y1advtc">
            <path data-name="Path 62861" d="M-200 200h3744v-2510H-200z" style="stroke:#fff;stroke-width:.5px;fill:#191919"/>
        </clipPath>
    </defs>
    <g data-name="Mask Group 91" transform="translate(-56 -765)" style="clip-path:url(#5c0l6bv99a)">
        <g data-name="Group 69673" transform="translate(-1188.5 2571.119)" style="clip-path:url(#jj3pv1mztb)">
            <g data-name="Group 69672" style="clip-path:url(#y43y1advtc)">
                <path data-name="Path 62860" d="M1241-1809.91h31v30.91h-31z" style="stroke:#fff;stroke-width:.5px;fill:#191919"/>
            </g>
        </g>
    </g>
</svg>
